<?xml version="1.0" encoding="UTF-8"?>
<svg id="Capa_3" data-name="Capa 3" xmlns="http://www.w3.org/2000/svg" viewBox="0 0 1512 982">
  <path d="M93.77,630.09c23.16-3.39,18.7,33.06,48.57,36.14s40.66-15.25,63.81-14.68,58.16-22.02,78.49-22.02,83.58,1.73,100.52-3.65,71.72-20.07,81.88-22.33,66.64-.56,108.42,7.34,91.48,15.25,102.21,16.94,69.46,9.04,100.52,8.47,56.47-8.31,90.92-14.04,42.35-6.29,58.16-4.6,40.09,12.42,51.95,20.89,36.14,19.2,61.55,20.89,51.39,11.86,68.33,9.04,64.94-25.28,80.75-32.68,49.13-21.53,104.47-9.1,83.58,27.11,96.56,33.88,25.41,12.99,25.41,12.99v238.31H93.77v-281.79Z"/>
</svg>