<?xml version="1.0" encoding="UTF-8"?>
<svg id="Capa_5" data-name="Capa 5" xmlns="http://www.w3.org/2000/svg" viewBox="0 0 1512 982">
  <path d="M93.77,512.91s132.71-59.29,149.65-75.39,82.16-60.14,111.81-64.38,45.74,8.47,60.99,16.09,16.09,16.09,60.14,16.09,45.74-.85,50.82,5.93,5.08,14.4,39.81,13.55,25.41-6.78,44.05-2.54,17.51,8.47,26.26,13.55,27.95,3.39,45.74,22.02,40.19,42.16,64.28,60.24,85.65,78.68,161.03,68.52,102.49-21.18,145.69-10.16,33.04,33.88,92.33,39.81,67.76,38.96,111.81,41.51,128.19,30.49,143.15,35.58,14.96,13.15,14.96,13.15v205.39H93.77v-398.97Z"/>
</svg>