<?xml version="1.0" encoding="UTF-8"?>
<svg id="Capa_8" data-name="Capa 8" xmlns="http://www.w3.org/2000/svg" viewBox="0 0 1512 982">
  <path d="M1416.31,273.01s-71.53-19.95-86.21-19.2-49.32,16.19-68.52,21.08-48.94,15.81-74.16,16.56-51.95-26.35-73.04-31.25c-11.64-2.7-25.2-1.05-36.52-3.39-9.19-1.9-16.56-7.98-22.96-8.66-10.54,1.13-7.53,5.27-14.68,8.66s-21.46-1.69-64.38,16.38-76.8,12.99-94.87,12.99-79.06-8.47-86.96-13.84-15.59-21.46-38.01-22.59-36.25,9.04-49.24-15.25-23.44-26.26-38.12-19.48-9.32,6.78-25.69,7.34-17.22-2.26-33.32,7.06-51.39,26.54-67.48,31.62-65.88,5.18-92.24,3.67-25.98-7.15-34.64-7.15-12.8,10.54-28.61,3.76c-8.67-3.71-44.79-34.06-62.12-34.64-11.29-.38-40.33,28.48-52.63,36.02-8.29,5.08-59.56,11.79-80.64,17.81s-26.73,12.05-42.54,14.31-54.97-14.68-54.97-14.68V911.88H1416.31V273.01Z"/>
</svg>