<?xml version="1.0" encoding="UTF-8"?>
<svg id="Capa_2" data-name="Capa 2" xmlns="http://www.w3.org/2000/svg" viewBox="0 0 1512 982">
  <path d="M1416.31,605.43v306.45H93.77v-355.79c.92-1.29,1.8-2.05,2.64-2.24,10.52-2.34,17.4,1.93,17.4,1.93,2.18,1.36,4.14,2.96,6.69,7.11,6.03,9.79,10.54,15.81,14.31,18.07,3.76,2.26,7.15-.38,8.28,8.28,1.13,8.66,10.17,24.47,10.54,25.6,.2,.6,.19,1.69,1.01,2.44,1.83,1.71,5.47,.18,6.12,1.5,.24,.49-.21,.82,.07,1.87,.23,.86,.75,1.42,.99,1.67,1.17,1.24,2.76,1.46,3.48,1.56,.55,.07,3.42,.47,5.14-1.04,3.93-3.44-.58-13.41,3.9-12.52,2.59,.52,4.07,.72,4.91,1.63,1.55,1.65,.75,3.75,1.11,7.79,.17,1.91,.89,4.63,2.21,8.09,1.13,2.96,2.67,9.6,8.76,3.81,2.96-2.82,4.37-3.81,5.08-5.08,.7-1.27,7.76-.42,7.76-.42,0,0,10.03,2.11,20.05-10.17s25.84-6.21,28.09-2.4c.37,.61,.52,.9,.55,.97-.1-.11-.6-.9-.81-1.21,.2,.33,.88,1.42,2.52,4.05,5.65,9.04,7.34,6.64,9.04,8.47,1.69,1.84,.56,6.22,2.4,6.64,1.83,.42,23.15,22.3,29.22,23.43,6.07,1.13,8.31,7.85,16.8,9.46,5.93,1.13,5.56-.23,6.21-5.93,.29-2.54,5.09-1.41,5.09,2.12,0,3.82,.84,7.77,3.24,9.88,2.4,2.12,6.07,9.04,14.83,11.44,8.75,2.4,9.03-3.53,12.98-3.39,3.96,.14,7.49,2.97,10.17,5.22,2.68,2.26,10.35,5.51,19.01-1.08,8.66-6.59,16.66-3.01,17.6-2.54,.94,.47,5.55,4.33,10.07,4.52s18.07,1.97,19.39,1.32c1.32-.66,5.65-1.04,5.27,1.88-.38,2.92,2.92,2.45,5.18,3.39,2.26,.94,8.18,7.53,14.11,7.81,5.93,.28,12.24,1.5,16.76,4.61,4.51,3.11,38.59,25.13,46.49,32.85,7.91,7.71,34.64,13.27,41.22,15.9,6.59,2.64,19.68,11.2,28.52,11.58,8.85,.38,11.48-3.86,13.55-3.86s4.99,.94,8,3.01c3.02,2.07,26.83,10.36,38.88,12.33,12.04,1.98,41.41,1.98,52.14,2.45,10.73,.47,45.83,3.1,52.51,2.92,15.25,.47,34.92-3.39,44.15-7.82,9.22-4.42,23.15-10.35,33.6-11.48,10.44-1.13,31.34-2.26,37.27-5.64,5.93-3.39,15.52-7.06,27.1-5.37,11.58,1.69,21.46,4.24,35.01,10.45,13.56,6.21,27.67,13.83,38.69,14.4,11.01,.56,38.96,6.21,46.87,.28,7.9-5.93,27.38-15.25,33.6-14.96,6.21,.28,20.04-2.64,36.61,.37,16.56,3.01,28.23,1.13,35.01-2.63,6.78-3.77,21.46-15.82,34.26-19.58,12.8-3.76,17.32-21.84,25.22-24.47,7.91-2.64,47.81-5.27,54.21-9.04,6.4-3.76,17.7-6.02,29.74-6.02s17.7-1.51,30.5-9.79,85.46-52.7,96.37-64.37c18.17-19.42,20.96-21.48,24.85-20.71Z"/>
</svg>