<?xml version="1.0" encoding="UTF-8"?>
<svg id="Capa_6" data-name="Capa 6" xmlns="http://www.w3.org/2000/svg" viewBox="0 0 1512 982">
  <path d="M1416.31,422.28s-14.96,27.11-25.97,33.04-18.64,.85-28.8,13.55-31.34,22.87-58.45,27.11-91.48,8.69-119.44-4.97-58.45-34.84-76.24-43.31-26.26-9.32-49.98-8.47-70.31,3.39-87.25,5.93-55.06,11.01-77.93,2.54-58.45-38.12-81.32-46.59-25.41-3.39-48.28-9.32-22.87-18.64-49.13-13.55-35.58,19.48-53.36,32.19-85.55,38.12-120.28,50.82-30.49,66.07-85.55,86.4-77.93,9.32-116.89,5.51-68.61,5.5-105.04,27.53-138.64,38.12-138.64,38.12v293.09H1416.31V422.28Z"/>
</svg>